<svg width="21" height="20" viewBox="0 0 21 20" fill="none" xmlns="http://www.w3.org/2000/svg">
<g id="iconamoon:profile-light">
<g id="Group">
<path id="Vector" d="M3.83337 15.0001C3.83337 14.116 4.18456 13.2682 4.80968 12.6431C5.43481 12.0179 6.28265 11.6667 7.16671 11.6667H13.8334C14.7174 11.6667 15.5653 12.0179 16.1904 12.6431C16.8155 13.2682 17.1667 14.116 17.1667 15.0001C17.1667 15.4421 16.9911 15.866 16.6786 16.1786C16.366 16.4912 15.9421 16.6667 15.5 16.6667H5.50004C5.05801 16.6667 4.63409 16.4912 4.32153 16.1786C4.00897 15.866 3.83337 15.4421 3.83337 15.0001Z" stroke="white" stroke-width="1.5" stroke-linejoin="round"/>
<path id="Vector_2" d="M10.5 8.33337C11.8807 8.33337 13 7.21409 13 5.83337C13 4.45266 11.8807 3.33337 10.5 3.33337C9.11929 3.33337 8 4.45266 8 5.83337C8 7.21409 9.11929 8.33337 10.5 8.33337Z" stroke="white" stroke-width="1.5"/>
</g>
</g>
</svg>
