<svg width="23" height="20" viewBox="0 0 23 20" fill="none" xmlns="http://www.w3.org/2000/svg">
<path id="Vector" d="M22.7155 8.48006L20.1447 7.8134C19.9669 7.27427 19.7225 6.75346 19.4156 6.26007L20.6742 4.21341C20.7214 4.13616 20.7387 4.04774 20.7235 3.96127C20.7083 3.8748 20.6614 3.7949 20.5898 3.73342L18.7557 2.13342C18.6849 2.0712 18.5929 2.03047 18.4934 2.01726C18.3938 2.00405 18.2921 2.01907 18.2031 2.06009L15.8625 3.14675C15.2889 2.86719 14.6816 2.64361 14.0514 2.48009L13.284 0.273434C13.2515 0.192112 13.1902 0.121834 13.1088 0.0727163C13.0275 0.0235984 12.9303 -0.00182615 12.8312 0.000102112H10.2373C10.1377 0.000505159 10.0408 0.028525 9.96072 0.0800838C9.88067 0.131643 9.82164 0.20405 9.79224 0.286767L9.02482 2.48676C8.38941 2.64941 7.77682 2.87301 7.19837 3.15342L4.89612 2.07343C4.80719 2.0324 4.7054 2.01738 4.60587 2.03059C4.50633 2.0438 4.41435 2.08454 4.34358 2.14676L2.47876 3.72675C2.40713 3.78823 2.36024 3.86813 2.34503 3.9546C2.32982 4.04107 2.34712 4.12949 2.39434 4.20675L3.63755 6.20674C3.31528 6.70713 3.0579 7.23703 2.87014 7.78673L0.329989 8.45339C0.23477 8.47894 0.15142 8.53021 0.0920694 8.59976C0.0327185 8.6693 0.00046396 8.75349 0 8.84006V11.0934C0.00046396 11.1799 0.0327185 11.2641 0.0920694 11.3337C0.15142 11.4032 0.23477 11.4545 0.329989 11.48L2.88549 12.1467C3.0753 12.6872 3.33264 13.2081 3.6529 13.7L2.39434 15.7934C2.34712 15.8706 2.32982 15.959 2.34503 16.0455C2.36024 16.132 2.40713 16.2119 2.47876 16.2734L4.31288 17.8667C4.38365 17.9289 4.47563 17.9696 4.57517 17.9828C4.67471 17.9961 4.77649 17.981 4.86542 17.94L7.23674 16.84C7.79769 17.103 8.38941 17.313 9.0018 17.4667L9.76921 19.7133C9.79862 19.7961 9.85764 19.8685 9.9377 19.92C10.0178 19.9716 10.1147 19.9996 10.2143 20H12.8082C12.9078 19.9996 13.0047 19.9716 13.0848 19.92C13.1649 19.8685 13.2239 19.7961 13.2533 19.7133L14.0207 17.46C14.6279 17.3056 15.2144 17.0955 15.7704 16.8333L18.1571 17.94C18.246 17.981 18.3478 17.9961 18.4473 17.9828C18.5469 17.9696 18.6388 17.9289 18.7096 17.8667L20.5437 16.2734C20.6154 16.2119 20.6623 16.132 20.6775 16.0455C20.6927 15.959 20.6754 15.8706 20.6282 15.7934L19.3542 13.7267C19.6592 13.2418 19.9036 12.73 20.0833 12.2L22.6695 11.5334C22.7647 11.5078 22.8481 11.4566 22.9074 11.387C22.9668 11.3175 22.999 11.2333 22.9995 11.1467V8.87339C23.004 8.79049 22.9792 8.70837 22.9285 8.63806C22.8777 8.56775 22.8034 8.51262 22.7155 8.48006ZM11.5343 13.6667C10.6995 13.6667 9.88343 13.4517 9.18933 13.0488C8.49522 12.6459 7.95423 12.0732 7.63477 11.4032C7.31531 10.7332 7.23172 9.99599 7.39458 9.28472C7.55744 8.57346 7.95943 7.92013 8.54972 7.40734C9.14001 6.89455 9.89208 6.54534 10.7108 6.40386C11.5296 6.26238 12.3783 6.33499 13.1495 6.61251C13.9207 6.89003 14.5799 7.35999 15.0437 7.96297C15.5075 8.56595 15.7551 9.27486 15.7551 10.0001C15.7551 10.9725 15.3104 11.9051 14.5188 12.5928C13.7273 13.2804 12.6537 13.6667 11.5343 13.6667Z" fill="#676767"/>
</svg>
