<svg width="10" height="11" viewBox="0 0 10 11" fill="none" xmlns="http://www.w3.org/2000/svg">
<g id="game-icons:muscle-up" clip-path="url(#clip0_114_1459)">
<path id="Vector" d="M3.24014 0.865029C0.304341 1.65784 -0.824175 4.37796 1.81073 5.29251H1.78934C1.80174 5.29419 1.81422 5.29614 1.82657 5.29798C2.00206 5.35808 2.19434 5.40995 2.40336 5.45306C3.38573 5.8389 4.09627 6.77386 4.15389 7.68753C3.49932 8.13862 2.99237 8.91495 2.99237 8.91495L3.50565 9.67054L2.70057 10.1289H4.30155C3.512 9.33919 4.07186 8.45108 5.00711 8.45108C5.95516 8.45108 6.45135 9.39077 5.71329 10.1289H7.29778L6.5092 9.67054L7.02254 8.91495C7.02254 8.91495 6.50739 8.12589 5.84516 7.67655C5.90774 6.76636 6.61665 5.83735 7.59506 5.45304C7.80416 5.40993 7.99635 5.35812 8.17182 5.298C8.18418 5.29614 8.19668 5.29419 8.20909 5.29253H8.18711C10.8224 4.37808 9.6942 1.65788 6.75827 0.86499C5.96291 1.63394 6.886 2.85099 7.61034 1.97587C8.33104 3.32509 7.77836 4.4678 6.19862 3.60489C5.96659 4.08325 5.5304 4.41298 5.01331 4.41298C4.49176 4.41298 4.05299 4.07769 3.82249 3.59267C2.22534 4.47899 1.66405 3.33149 2.38817 1.97587C3.11258 2.85097 4.03563 1.63392 3.24024 0.86501L3.24014 0.865029ZM5.01338 1.56659C4.47846 1.56659 4.01084 2.10479 4.01084 2.80897C4.01084 3.51319 4.47846 4.03935 5.01338 4.03935C5.54829 4.03935 6.01586 3.51317 6.01586 2.80899C6.01586 2.10474 5.54829 1.56661 5.01336 1.56661L5.01338 1.56659Z" fill="white"/>
</g>
<defs>
<clipPath id="clip0_114_1459">
<rect width="10" height="10" fill="white" transform="translate(0 0.5)"/>
</clipPath>
</defs>
</svg>
