<svg width="36" height="36" viewBox="0 0 36 36" fill="none" xmlns="http://www.w3.org/2000/svg">
<g id="Perfil">
<circle id="Ellipse 14" cx="18" cy="18" r="18" fill="#1976D2"/>
<path id="Vector" d="M31.8413 29.3571C29.793 25.8063 26.6367 23.2601 22.9531 22.0532C24.7752 20.9655 26.1908 19.3081 26.9826 17.3355C27.7744 15.363 27.8986 13.1843 27.3361 11.1341C26.7736 9.08395 25.5555 7.2756 23.8689 5.9868C22.1823 4.698 20.1205 4 18 4C15.8795 4 13.8177 4.698 12.1311 5.9868C10.4445 7.2756 9.22642 9.08395 8.66393 11.1341C8.10144 13.1843 8.22562 15.363 9.01742 17.3355C9.80922 19.3081 11.2248 20.9655 13.0469 22.0532C9.36334 23.2588 6.20696 25.8049 4.15874 29.3571C4.08363 29.4799 4.03381 29.6166 4.01222 29.759C3.99063 29.9014 3.9977 30.0468 4.03303 30.1864C4.06836 30.3261 4.13122 30.4572 4.2179 30.5721C4.30459 30.687 4.41335 30.7833 4.53776 30.8554C4.66216 30.9274 4.79971 30.9738 4.94227 30.9916C5.08482 31.0095 5.22951 30.9986 5.3678 30.9595C5.50608 30.9204 5.63515 30.854 5.7474 30.7641C5.85965 30.6741 5.95281 30.5626 6.02137 30.436C8.55508 26.045 13.0334 23.4233 18 23.4233C22.9666 23.4233 27.4449 26.045 29.9786 30.436C30.0472 30.5626 30.1403 30.6741 30.2526 30.7641C30.3648 30.854 30.4939 30.9204 30.6322 30.9595C30.7705 30.9986 30.9152 31.0095 31.0577 30.9916C31.2003 30.9738 31.3378 30.9274 31.4622 30.8554C31.5867 30.7833 31.6954 30.687 31.7821 30.5721C31.8688 30.4572 31.9316 30.3261 31.967 30.1864C32.0023 30.0468 32.0094 29.9014 31.9878 29.759C31.9662 29.6166 31.9164 29.4799 31.8413 29.3571ZM10.4688 13.7135C10.4688 12.2198 10.9105 10.7597 11.738 9.51778C12.5656 8.27585 13.7418 7.30787 15.1179 6.73628C16.4941 6.16468 18.0084 6.01512 19.4693 6.30652C20.9302 6.59792 22.2721 7.31718 23.3254 8.37336C24.3786 9.42954 25.0959 10.7752 25.3865 12.2402C25.6771 13.7051 25.5279 15.2236 24.9579 16.6036C24.3879 17.9835 23.4226 19.163 22.1841 19.9928C20.9456 20.8227 19.4895 21.2656 18 21.2656C16.0033 21.2634 14.0889 20.4671 12.677 19.0513C11.2651 17.6354 10.4709 15.7158 10.4688 13.7135Z" fill="white"/>
</g>
</svg>
