<svg width="20" height="20" viewBox="0 0 20 20" fill="none" xmlns="http://www.w3.org/2000/svg">
<g id="mdi:email">
<path id="Vector" d="M16.6667 6.66665L9.99999 10.8333L3.33332 6.66665V4.99998L9.99999 9.16665L16.6667 4.99998M16.6667 3.33331H3.33332C2.40832 3.33331 1.66666 4.07498 1.66666 4.99998V15C1.66666 15.442 1.84225 15.8659 2.15481 16.1785C2.46737 16.4911 2.8913 16.6666 3.33332 16.6666H16.6667C17.1087 16.6666 17.5326 16.4911 17.8452 16.1785C18.1577 15.8659 18.3333 15.442 18.3333 15V4.99998C18.3333 4.55795 18.1577 4.13403 17.8452 3.82147C17.5326 3.50891 17.1087 3.33331 16.6667 3.33331Z" fill="#949393"/>
</g>
</svg>
